<?xml version='1.0' encoding='utf-8'?>
<svg xmlns="http://www.w3.org/2000/svg" width="1073px" height="767px" version="1.1" viewBox="-177 328 1073 767"> <g stroke-linejoin="miter"> <g fill="#ffc94d"> <path d="m-177 326.76c-0.32977 0-0.64604 0.131-0.87923 0.3642-0.23318 0.23317-0.36418 0.54943-0.36418 0.8792l1e-3 767c0 0.6867 0.55671 1.2434 1.2434 1.2434l1073 9e-4c0.3298 0 0.6461-0.1308 0.8792-0.364 0.2332-0.2331 0.3642-0.5495 0.3642-0.8794l-9.5e-4 -767c0-0.6867-0.5567-1.2434-1.2434-1.2434l-1073-1e-3z"/> </g> <g fill="#44c5e5"> <path d="m126.08 576.23c-0.013615 0-0.027235 6.5e-4 -0.04065 0.00144l-8.05e-4 3.6e-4c-8.4388 0.0193-14.899 6.5324-14.9 14.976l-0.0526 301.86c-0.00146 8.4572 6.4794 14.939 14.935 14.959l0.001466 9e-4 515.64 0.0711v4e-4c8.4569 0.00104 14.94-6.4792 14.942-14.936l0.05249-301.86c0.0014-8.4442-6.4572-14.961-14.9-14.963l-0.02331 4.4e-4c-0.0033-4.4e-4 -0.00834-4.4e-4 -0.01569-4.4e-4l-515.64-0.10886z"/> </g> <g fill="#c9d6de"> <path d="m177.01 627 292.4 9.7e-4q0 119.75 0 239.5-146.2 5e-4 -292.4 1e-3 0-119.75 0-239.5"/> </g> <g fill="#e3edf2"> <path d="m185.08 651.81 276.61 9.5e-4q0 102.83 0 205.67-138.31 5e-4 -276.61 1e-3 0-102.83 0-205.67"/> </g> <g fill="#000" fill-opacity=".2549"> <path d="m760.24 967.4-3.3815 0.76915q-10.684 1.0321-39.659 1.8773-14.488 0.4219-33.548 0.7981-6.6721 0.21707-67.47 1.0211-52.198 0.61121-112.63 0.89222-30.219 0.14124-62.497 0.19944-14.852 0.0808-101.47-0.00975-81.756-0.28015-94.503-0.41955-29.248-0.1924-55.493-0.4536-52.489-0.52297-92.963-1.3241-90.365-1.9374-75.052-4.0061 6.7304-1.0305 33.321-1.8976 13.295-0.4331 31.556-0.82544 6.3213-0.2262 65.364-1.0768 98.125-1.254 238.03-1.2832 69.954 0.0394 129.46 0.38096 29.754 0.1709 56.897 0.4176 65.572 0.68201 75.552 0.90894 46.451 0.71984 73.042 1.5961 13.295 0.43799 21.625 0.91514 16.481 1.2274 13.82 1.52"/> </g> <g fill="#000"> <path d="m126.08 557.63c-18.428-0.00317-33.538 15.14-33.541 33.568l-0.05238 301.86c-0.0033 18.427 15.101 33.538 33.53 33.541l515.64 0.1095c18.428-0.01525 33.538-15.121 33.542-33.548l0.0521-301.86c0.00324-18.428-15.101-33.577-33.53-33.58l-515.64-0.07098zm-0.003354 19.205 515.64 0.10865c8.1203-0.01745 14.328 6.2298 14.327 14.353l-0.0526 301.86c-0.00116 8.1202-6.2114 14.327-14.332 14.326l-515.64-0.07171c-8.1202-0.0202-14.328-6.2298-14.327-14.35l0.0524-301.86c0.0014-8.1228 6.2114-14.368 14.332-14.367z"/> <path d="m335.87 939.86 95.931 0.0359c1.48-0.0186 2.6716 1.1725 2.6713 2.6544-3.2e-4 1.4797-1.1922 2.6718-2.6722 2.6713l-95.931 0.00254c-1.4802-0.0196-2.6715-1.2108-2.6714-2.6918 2.5e-4 -1.4796 1.192-2.6728 2.6723-2.6724z"/> </g> <g fill="#d7edf9"> <path d="m449.73 1008.7v9.8e-4 -9.8e-4"/> </g> <g fill="#000"> <path d="m61.767 932.13c-0.003485 20.273 13.993 36.602 31.376 36.605l581.38 0.12097c17.383-0.01573 31.385-16.339 31.388-36.613l-644.15-0.0942z"/> <path d="m444.17 949.76v3.6e-4 -3.6e-4"/> </g> <g fill="#222b32" fill-opacity=".99608"> <path d="m309.5 746.13 8e-5 6.4e-4v-6.4e-4l-8e-5 6.4e-4 8e-5 -6.4e-4v3.4e-4q0-3.4e-4 -8e-5 -3.4e-4z"/> <path d="m309.5 746.13 8e-5 6.4e-4v-6.4e-4l-8e-5 6.4e-4 8e-5 -6.4e-4v3.4e-4q0-3.4e-4 -8e-5 -3.4e-4z"/> <path d="m309.5 746.13 8e-5 6.4e-4v-6.4e-4l-8e-5 6.4e-4 8e-5 -6.4e-4v3.4e-4q0-3.4e-4 -8e-5 -3.4e-4z"/> <path d="m309.5 746.13 8e-5 6.4e-4v-6.4e-4l-8e-5 6.4e-4 8e-5 -6.4e-4v3.4e-4q0-3.4e-4 -8e-5 -3.4e-4z"/> </g> <g fill="#fff" fill-opacity=".99608"> <path d="m245.83 701.29h133.07l133.07 1.6e-4v113.87q-133.07 3e-4 -266.14 6e-4 0-56.938-1.2e-4 -113.88"/> </g> <g fill="#374850" fill-opacity=".99608"> <path d="m245.8 683.73 266.19 3.5e-4q0 13.446 0 26.892-133.1 1.6e-4 -266.19 2.6e-4 0-13.446 0-26.892"/> </g> <g fill="#f00" fill-opacity=".99608"> <path d="m272.55 798.61v1.6e-4q19.003-33.255 38.006-66.509 19.003 33.255 38.006 66.509l-76.011 3e-4"/> </g> <g fill="#fff"> <path d="m306.2 747.67 1.8361 32.4h2.754l2.0521-32.4zm3.3481 34.29q-1.728 1.8e-4 -2.4301 0.91809-0.75588 0.9721-0.80991 2.214 0.05403 1.242 0.75598 2.16 0.75598 0.918 2.484 0.918 1.6201 0 2.322-0.91796 0.70194-0.91794 0.81-2.1601-0.10806-1.2418-0.81-2.1599-0.70196-0.97213-2.322-0.97213z"/> </g> <g fill="#000"> <path d="m391.03 748.94q3.0841 0 4.5902 1.1833 1.542 1.2194 1.542 3.5144 0 1.2193-0.39441 2.1336-0.3946 0.89656-1.2194 1.6137-0.89649 0.77103-1.9723 1.1119-1.1476 0.35852-2.7613 0.35856l-3.335 8e-4v-9.9162zm24.565 0q3.0841 0 4.5902 1.1833 1.5422 1.2194 1.5422 3.5144 0 1.2194-0.39443 2.1337-0.39457 0.8965-1.2195 1.6136-0.89642 0.7711-1.9723 1.1119-1.1474 0.3585-2.7613 0.3585l-3.335 7.6e-4v-9.9163zm52.249 0q3.0838-6e-5 4.5901 1.1833 1.542 1.2194 1.542 3.5144 0 1.2194-0.39457 2.1336-0.39443 0.89656-1.2191 1.6137-0.89652 0.77103-1.9724 1.1119-1.1475 0.35856-2.7611 0.35856l-3.3352 7.6e-4v-9.9163zm-24.888 0.07164q2.1874 1.4e-4 3.8909 0.6994 1.7214 0.6992 2.9406 2.026 1.1118 1.2191 1.829 3.2634 0.66343 1.9186 0.66343 4.375l0.03577 7.6e-4q0 2.4197-0.66336 4.3384-0.66349 1.9185-1.8649 3.2274-1.2371 1.3448-2.9406 2.0439-1.793 0.7353-3.855 0.73525-2.062 0-3.855-0.73529-1.7034-0.69896-2.9406-2.0439-1.2551-1.3626-1.9006-3.2274-0.66349-1.9188-0.66349-4.3392 0-2.4564 0.66349-4.375 0.66342-1.9186 1.9006-3.2634 1.2194-1.3268 2.9406-2.026 1.7033-0.69935 3.8191-0.69935zm-83.162-2.8509v1.542q0 0.5916 0.53795 0.69936 0.32269 0.10744 2.0978 0.43024v20.978l-2.0978 0.39464q-0.53795 0.10742-0.53795 0.6991v1.5421l18.863 5.5e-4v-6.0969l-1.7572 5e-4q-0.71713-5e-4 -0.80679 0.59115 0 0.21521-0.21515 2.6358l-9.8438 5.4e-4v-9.0014l9.6824 6.5e-4v-2.7798l-9.6824 5.4e-4v-8.7507l9.8438 8.6e-4q0.05374 0.75225 0.12543 1.4515 0.07171 0.69937 0.10769 1.0222 0.01785 0.32256 0.01785 0.3584 0.10758 0.6276 0.77097 0.6276l1.7572 8e-4v-6.3482zm21.516-0.0717v1.6137q0 0.53786 0.53796 0.66334 0.32279 0.07176 2.1337 0.43046v20.925l-2.1337 0.44823q-0.53796 0.1255-0.53796 0.6632v1.5779l8.8398 8e-4v-1.5787q0-0.2331-0.1792-0.4303-0.1614-0.1791-0.41237-0.2329-0.28699-0.07164-2.0441-0.44823v-8.2839l2.3488 6.1e-4q0.77094-6.1e-4 1.0938 0.21456 0.37649 0.2511 0.66344 0.62755l6.8315 9.3954q0.43034 0.77107 1.3985 0.77107l3.8192 6.6e-4v-1.6145q0-0.5377-0.55583-0.6632l0.03588 6e-4q-0.17942-0.05454-2.0621-0.3594l-5.684-7.7997q-0.4841-0.6992-1.1833-1.0935 1.3268-0.28687 2.7254-1.0579 1.1834-0.64566 2.0261-1.6676 0.84271-1.0222 1.273-2.2054 0.44827-1.2553 0.44827-2.5642 0-1.6854-0.55585-3.048-0.53795-1.309-1.7571-2.3132-1.2014-0.98603-3.0124-1.4702-1.9006-0.502-4.3391-0.502zm24.565 7e-5v1.6137q0 0.5378 0.53782 0.6633 0.32282 0.0718 2.1337 0.43036v20.925l-2.1337 0.4483q-0.53782 0.1255-0.53782 0.6632v1.5779l8.8396 8e-4v-1.5787q0-0.2331-0.17929-0.4303-0.16141-0.1791-0.41245-0.2329-0.28686-0.07164-2.044-0.4483v-8.2839l2.3489 6.4e-4q0.77106-6.1e-4 1.0937 0.21456 0.37662 0.2511 0.66355 0.62767l6.8314 9.3952q0.43039 0.7711 1.3986 0.7711l3.8192 6e-4v-1.6144q0-0.53772-0.55583-0.66321l0.03587 6.1e-4q-0.17932-0.05456-2.0621-0.35936l-5.6839-7.7996q-0.48413-0.69916-1.1835-1.0935 1.3268-0.28686 2.7254-1.0579 1.1834-0.64574 2.0262-1.6676 0.84268-1.0222 1.273-2.2054 0.44824-1.2553 0.44824-2.5643 0-1.6853-0.55582-3.0479-0.53778-1.309-1.7572-2.3132-1.2012-0.986-3.0122-1.4702-1.9007-0.502-4.3393-0.502zm52.249-7e-5v1.6137q0 0.53786 0.53786 0.66334 0.3227 0.07172 2.1337 0.43042v20.925l-2.1337 0.44825q-0.53786 0.12549-0.53786 0.66321v1.5779l8.8397 8.6e-4v-1.5787q0-0.2331-0.1793-0.4303-0.1614-0.1791-0.41238-0.2329-0.28698-0.07164-2.0441-0.4483v-8.2839l2.3489 6.4e-4q0.77106-6.1e-4 1.0938 0.21456 0.37645 0.2511 0.66337 0.62767l6.8315 9.3952q0.43028 0.771 1.3986 0.7711l3.8191 6e-4v-1.6144q0-0.53772-0.5558-0.66321l0.03575 6.1e-4q-0.1792-0.05456-2.062-0.35936l-5.6839-7.7997q-0.48407-0.6992-1.1834-1.0935 1.3269-0.28687 2.7254-1.0579 1.1834-0.64566 2.0261-1.6676 0.84287-1.0221 1.2731-2.2054 0.44824-1.2552 0.44824-2.5642 0-1.6854-0.55582-3.048-0.5379-1.309-1.7573-2.3132-1.2012-0.98605-3.0122-1.4702-1.9007-0.50202-4.3392-0.50189zm-15.098-0.23315q-2.851 0-5.2895 1.0042-2.3847 0.98605-4.1061 2.7792-1.7212 1.793-2.6536 4.2672-0.95047 2.4924-0.95047 5.4331 0 2.9405 0.95047 5.4329 0.93233 2.4742 2.6536 4.2674 1.6497 1.7391 4.1061 2.7431 2.4923 1.0221 5.2895 1.0221 2.7971 3e-5 5.2895-1.0221 2.3848-0.9863 4.0701-2.7431 1.7214-1.7933 2.6537-4.2674 0.91452-2.4028 0.91452-5.3971l0.03594-0.0718q0-3.0302-0.9145-5.4328-0.9324-2.4745-2.6537-4.2674-1.6496-1.7392-4.1061-2.7433-2.4386-1.0042-5.2895-1.0042z"/> </g> <g fill="#f00" fill-opacity=".99608"> <path d="m264.03 699.05-0.05093 0.75677q-0.36197 2.2873-2.1183 3.6586-1.7686 1.3703-4.1651 1.1113-2.2872-0.362-3.6586-2.1185-0.43939-0.56769-0.72394-1.2372l-0.23901-0.6882q-0.19697-0.7105-0.19919-1.4828 0.05975-2.37 1.6336-3.9439 1.5738-1.5735 3.9439-1.6336 2.37 0.06004 3.9438 1.6336 1.5739 1.5739 1.6337 3.9439"/> </g> <g fill="#919191" fill-opacity=".99608"> <path d="m268.51 697.95 13.515-1e-4 13.515 2.4e-4q0 1.8595 0 3.7191-13.515 2e-4 -27.029 5e-4 0-1.86 0-3.7197"/> </g> <g fill="#374850"> <path d="m175.88 612.26 294.45 9.6e-4q0 17.039 0 34.078-147.22 5e-4 -294.45 9.6e-4 0-17.04 0-34.08"/> </g> <g fill="#ff3434"> <path d="m206.87 628.02-0.11038 1.6408q-0.78476 4.9585-4.5924 7.9313-3.834 2.9705-9.0295 2.4091-4.9585-0.7848-7.9313-4.5924-0.95253-1.2308-1.5692-2.6822l-0.5183-1.4921q-0.42711-1.5401-0.43191-3.2144 0.12965-5.1382 3.5415-8.55 3.4118-3.4119 8.55-3.5415 5.1381 0.12964 8.55 3.5415 3.4119 3.4118 3.5415 8.55"/> </g> </g> </svg>